<svg id="Capa_1" data-name="Capa 1" xmlns="http://www.w3.org/2000/svg" viewBox="0 0 300 55"><defs><style>.cls-1{fill:#3873b4;}.cls-2{fill:#ef5a23;}</style></defs><title>logo pm_V9-web</title><path class="cls-1" d="M94.47,10.65A10.58,10.58,0,0,1,101.41,13a7,7,0,0,1,0,11.35,10.64,10.64,0,0,1-6.94,2.35H77.8l0,10.52a1.32,1.32,0,0,1-1.47,1.51h-2a1.32,1.32,0,0,1-1.47-1.51V12.16a1.32,1.32,0,0,1,1.47-1.51Zm-16.69,12H94.47A5.34,5.34,0,0,0,98,21.51a3.53,3.53,0,0,0,0-5.67,5.3,5.3,0,0,0-3.48-1.18H77.78Z"/><path class="cls-1" d="M120.13,24.69a3.55,3.55,0,0,0-1.44-2.84,5.75,5.75,0,0,0-7,0,3.56,3.56,0,0,0-1.43,2.84V37.22a1.32,1.32,0,0,1-1.47,1.51h-2a1.32,1.32,0,0,1-1.47-1.51V24.69A7.11,7.11,0,0,1,108.28,19a11.48,11.48,0,0,1,13.89,0l.41.36c.13-.12.28-.24.43-.36a11.45,11.45,0,0,1,13.87,0,7.11,7.11,0,0,1,2.88,5.68V37.22a1.32,1.32,0,0,1-1.47,1.51h-2a1.32,1.32,0,0,1-1.48-1.51V24.69a3.56,3.56,0,0,0-1.43-2.84,5.75,5.75,0,0,0-6.95,0A3.54,3.54,0,0,0,125,24.69V37.22a1.32,1.32,0,0,1-1.48,1.51h-2a1.32,1.32,0,0,1-1.47-1.51Z"/><path class="cls-1" d="M168.36,30.71a7.08,7.08,0,0,1-2.88,5.67,10.58,10.58,0,0,1-6.94,2.35h-7.85a10.6,10.6,0,0,1-6.94-2.35,7.08,7.08,0,0,1-2.88-5.67v-6A7.11,7.11,0,0,1,143.75,19a10.65,10.65,0,0,1,6.94-2.34h7.85A10.63,10.63,0,0,1,165.48,19a7.11,7.11,0,0,1,2.88,5.68Zm-22.58,0a3.53,3.53,0,0,0,1.44,2.83,5.25,5.25,0,0,0,3.47,1.18h7.85A5.28,5.28,0,0,0,162,33.54a3.55,3.55,0,0,0,1.43-2.83v-6A3.56,3.56,0,0,0,162,21.85a5.32,5.32,0,0,0-3.48-1.17h-7.85a5.3,5.3,0,0,0-3.47,1.17,3.55,3.55,0,0,0-1.44,2.84Z"/><path class="cls-2" d="M170.56,24.69A7.13,7.13,0,0,1,173.43,19a10.68,10.68,0,0,1,6.95-2.34h4.41a1.32,1.32,0,0,1,1.48,1.5v1a1.32,1.32,0,0,1-1.48,1.51h-4.41a5.32,5.32,0,0,0-3.48,1.17,3.54,3.54,0,0,0-1.43,2.84V37.22A1.32,1.32,0,0,1,174,38.73h-2a1.32,1.32,0,0,1-1.47-1.51Z"/><path class="cls-2" d="M208.1,16.67a8.4,8.4,0,0,1,5.55,1.9,5.78,5.78,0,0,1,0,9.23,8.4,8.4,0,0,1-5.55,1.9H193.37v1a3.55,3.55,0,0,0,1.43,2.83,5.3,5.3,0,0,0,3.48,1.18h16.2a1.31,1.31,0,0,1,1.47,1.5v1a1.32,1.32,0,0,1-1.47,1.51h-16.2a10.6,10.6,0,0,1-6.94-2.35,7.08,7.08,0,0,1-2.88-5.67v-6A7.11,7.11,0,0,1,191.34,19a10.65,10.65,0,0,1,6.94-2.34Zm-9.82,4a5.34,5.34,0,0,0-3.48,1.17,3.56,3.56,0,0,0-1.43,2.84v1H208.1a3.11,3.11,0,0,0,2.08-.73,2.26,2.26,0,0,0,0-3.55,3.11,3.11,0,0,0-2.08-.73Z"/><path class="cls-2" d="M223.06,37.22a1.32,1.32,0,0,1-1.47,1.51h-2a1.32,1.32,0,0,1-1.47-1.51V12.16a1.32,1.32,0,0,1,1.47-1.51h2a1.32,1.32,0,0,1,1.47,1.51Z"/><path class="cls-2" d="M230.16,13.16a1.31,1.31,0,0,1-1.47,1.5h-2a1.32,1.32,0,0,1-1.48-1.5v-1a1.32,1.32,0,0,1,1.48-1.51h2a1.32,1.32,0,0,1,1.47,1.51Zm0,24.06a1.32,1.32,0,0,1-1.47,1.51h-2a1.32,1.32,0,0,1-1.48-1.51v-19a1.32,1.32,0,0,1,1.48-1.5h2a1.31,1.31,0,0,1,1.47,1.5Z"/><path class="cls-2" d="M237.27,30.71a3.55,3.55,0,0,0,1.43,2.83,5.3,5.3,0,0,0,3.48,1.18H250a5.3,5.3,0,0,0,3.48-1.18,3.55,3.55,0,0,0,1.43-2.83V18.17a1.31,1.31,0,0,1,1.47-1.5h2a1.31,1.31,0,0,1,1.47,1.5V30.71A7.08,7.08,0,0,1,257,36.38,10.6,10.6,0,0,1,250,38.73h-7.85a10.58,10.58,0,0,1-6.94-2.35,7.08,7.08,0,0,1-2.88-5.67V18.17a1.31,1.31,0,0,1,1.47-1.5h2a1.31,1.31,0,0,1,1.47,1.5Z"/><path class="cls-2" d="M269.9,16.67h18.16a1.31,1.31,0,0,1,1.47,1.5v1a1.32,1.32,0,0,1-1.47,1.51H269.9a3.09,3.09,0,0,0-2.08.73,2.25,2.25,0,0,0,0,3.55,3.09,3.09,0,0,0,2.08.73h11.78a8.45,8.45,0,0,1,5.56,1.91,5.79,5.79,0,0,1,0,9.22,8.45,8.45,0,0,1-5.56,1.91H263.52a1.32,1.32,0,0,1-1.47-1.51v-1a1.31,1.31,0,0,1,1.47-1.5h18.16a3.16,3.16,0,0,0,2.08-.73,2.24,2.24,0,0,0,.86-1.78,2.2,2.2,0,0,0-.86-1.77,3.12,3.12,0,0,0-2.08-.74H269.9a8.43,8.43,0,0,1-5.56-1.9,5.8,5.8,0,0,1,0-9.23A8.43,8.43,0,0,1,269.9,16.67Z"/><path class="cls-2" d="M296.64,37.22a1.32,1.32,0,0,1-1.47,1.51h-2a1.32,1.32,0,0,1-1.47-1.51v-1a1.31,1.31,0,0,1,1.47-1.5h2a1.31,1.31,0,0,1,1.47,1.5Z"/><path class="cls-2" d="M51.38,39.37a8.82,8.82,0,0,1-5.29,6,13.66,13.66,0,0,1-9.29.7l-9.7-2.44a13.69,13.69,0,0,1-7.86-5,8.84,8.84,0,0,1-1.82-7.79l1.83-7.31a8.86,8.86,0,0,1,5.29-6,13.72,13.72,0,0,1,9.29-.7l9.7,2.44a13.69,13.69,0,0,1,7.86,5,8.85,8.85,0,0,1,1.82,7.79Zm-27.9-7a4.4,4.4,0,0,0,.91,3.89,6.84,6.84,0,0,0,3.93,2.5L38,41.2a6.87,6.87,0,0,0,4.65-.35,4.38,4.38,0,0,0,2.63-3l1.84-7.31a4.39,4.39,0,0,0-.91-3.89,6.85,6.85,0,0,0-3.93-2.51L32.6,21.71a6.81,6.81,0,0,0-4.65.34,4.44,4.44,0,0,0-2.63,3Z"/><path class="cls-2" d="M44.39,29.73a1.08,1.08,0,0,1-.67.76,1.67,1.67,0,0,1-1.17.09l-1.23-.31a1.77,1.77,0,0,1-1-.63,1.15,1.15,0,0,1-.23-1l.23-.93A1.14,1.14,0,0,1,41,27a1.76,1.76,0,0,1,1.18-.08l1.23.3a1.77,1.77,0,0,1,1,.64,1.12,1.12,0,0,1,.23,1Zm-3.53-.89a.59.59,0,0,0,.12.5.84.84,0,0,0,.49.31L42.7,30a.9.9,0,0,0,.59,0,.6.6,0,0,0,.34-.38l.23-.93a.57.57,0,0,0-.12-.49.83.83,0,0,0-.49-.32L42,27.49a.84.84,0,0,0-.59.05.58.58,0,0,0-.34.38Z"/><polygon class="cls-2" points="18.71 19.45 11.53 17.65 11.52 17.65 6.29 20.28 7.54 22.81 11.85 20.65 18.02 22.2 18.71 19.45"/><polygon class="cls-2" points="17.25 25.28 10.06 23.48 10.06 23.48 4.82 26.11 6.08 28.64 10.38 26.48 16.56 28.03 17.25 25.28"/><polygon class="cls-2" points="15.79 31.11 8.6 29.3 8.6 29.3 3.36 31.93 4.62 34.46 8.92 32.3 15.1 33.85 15.79 31.11"/><polygon class="cls-2" points="55.62 28.72 62.81 30.53 62.81 30.53 66.19 35.32 63.88 36.96 61.11 33.02 54.93 31.47 55.62 28.72"/><polygon class="cls-2" points="54.16 34.55 61.35 36.35 61.35 36.35 64.72 41.15 62.42 42.78 59.65 38.84 53.47 37.29 54.16 34.55"/><polygon class="cls-2" points="52.7 40.38 59.89 42.18 59.89 42.18 63.26 46.98 60.96 48.61 58.19 44.67 52.01 43.12 52.7 40.38"/><rect class="cls-2" x="44.1" y="12.8" width="7.45" height="2.82" transform="translate(22.39 57.13) rotate(-75.9)"/><rect class="cls-2" x="38.97" y="11.51" width="7.45" height="2.82" transform="translate(19.76 51.18) rotate(-75.9)"/><rect class="cls-2" x="33.84" y="10.22" width="7.45" height="2.82" transform="translate(17.13 45.23) rotate(-75.9)"/><rect class="cls-2" x="28.71" y="8.94" width="7.45" height="2.82" transform="translate(14.5 39.29) rotate(-75.9)"/></svg>